<svg width="48" height="48" viewBox="0 0 48 48" fill="none" xmlns="http://www.w3.org/2000/svg">
  <defs>
    <linearGradient id="neon-gradient" x1="0" y1="0" x2="48" y2="48" gradientUnits="userSpaceOnUse">
      <stop stop-color="#a78bfa"/>
      <stop offset="0.5" stop-color="#f472b6"/>
      <stop offset="1" stop-color="#fb923c"/>
    </linearGradient>
    <filter id="glow" x="-20%" y="-20%" width="140%" height="140%">
      <feGaussianBlur stdDeviation="2.5" result="coloredBlur"/>
      <feMerge>
        <feMergeNode in="coloredBlur"/>
        <feMergeNode in="SourceGraphic"/>
      </feMerge>
    </filter>
  </defs>
  <!-- Dark background circle -->
  <circle cx="24" cy="24" r="20" fill="#18181b"/>
  
  <!-- Cat face shape -->
  <path d="M24 12C18 12 14 18 14 24C14 30 18 36 24 36C30 36 34 30 34 24C34 18 30 12 24 12Z" fill="url(#neon-gradient)" filter="url(#glow)"/>
  
  <!-- Cat ears -->
  <path d="M14 24C12 20 13 14 16 10" stroke="url(#neon-gradient)" stroke-width="2.5" filter="url(#glow)"/>
  <path d="M34 24C36 20 35 14 32 10" stroke="url(#neon-gradient)" stroke-width="2.5" filter="url(#glow)"/>
  
  <!-- Cat eyes -->
  <ellipse cx="18" cy="22" rx="2" ry="3" fill="#18181b"/>
  <ellipse cx="30" cy="22" rx="2" ry="3" fill="#18181b"/>
  
  <!-- Cat nose -->
  <path d="M24 26L22 28H26L24 26Z" fill="#18181b"/>
  
  <!-- Cat mouth -->
  <path d="M22 30C23 31 25 31 26 30" stroke="#18181b" stroke-width="1.5" stroke-linecap="round"/>
  
  <!-- Whiskers -->
  <line x1="16" y1="28" x2="10" y2="27" stroke="url(#neon-gradient)" stroke-width="1" stroke-linecap="round" filter="url(#glow)"/>
  <line x1="16" y1="30" x2="11" y2="31" stroke="url(#neon-gradient)" stroke-width="1" stroke-linecap="round" filter="url(#glow)"/>
  <line x1="32" y1="28" x2="38" y2="27" stroke="url(#neon-gradient)" stroke-width="1" stroke-linecap="round" filter="url(#glow)"/>
  <line x1="32" y1="30" x2="37" y2="31" stroke="url(#neon-gradient)" stroke-width="1" stroke-linecap="round" filter="url(#glow)"/>
</svg>
