<?xml version="1.0" encoding="UTF-8"?>
<svg width="800" height="800" viewBox="0 0 800 800" fill="none" xmlns="http://www.w3.org/2000/svg">
  <!-- Simple, clean silhouette style like GitHub logo -->
  <g>
    <!-- Cat head - single color silhouette like GitHub -->
    <path d="M400 120C240 120 120 240 120 400C120 560 240 680 400 680C560 680 680 560 680 400C680 240 560 120 400 120Z" fill="#8B5CF6"/>

    <!-- Cat ears - part of the silhouette -->
    <path d="M250 150L170 70C170 70 210 120 250 150Z" fill="#8B5CF6"/>
    <path d="M550 150L630 70C630 70 590 120 550 150Z" fill="#8B5CF6"/>

    <!-- Cat eyes - white circles like GitHub logo -->
    <circle cx="300" cy="300" r="60" fill="white"/>
    <circle cx="500" cy="300" r="60" fill="white"/>

    <!-- Cat mouth - simple line -->
    <path d="M320 450C360 490 440 490 480 450" stroke="white" stroke-width="12" stroke-linecap="round"/>
  </g>
</svg>
