<?xml version="1.0" encoding="UTF-8"?>
<svg width="800" height="800" viewBox="0 0 800 800" fill="none" xmlns="http://www.w3.org/2000/svg">
  <defs>
    <linearGradient id="purpleGradient" x1="0%" y1="0%" x2="100%" y2="100%">
      <stop offset="0%" stop-color="#8B5CF6" />
      <stop offset="100%" stop-color="#6D28D9" />
    </linearGradient>
    <filter id="glow" x="-20%" y="-20%" width="140%" height="140%">
      <feGaussianBlur stdDeviation="8" result="blur" />
      <feComposite in="SourceGraphic" in2="blur" operator="over" />
    </filter>
  </defs>

  <!-- Main cat head shape - more angular like Mr. Kat -->
  <path d="M400 120C250 120 120 250 120 400C120 550 250 680 400 680C550 680 680 550 680 400C680 250 550 120 400 120Z" fill="#7E22CE"/>

  <!-- Pointed ears - more exaggerated like Mr. Kat -->
  <path d="M280 150L150 20C150 20 220 100 280 150Z" fill="#7E22CE"/>
  <path d="M520 150L650 20C650 20 580 100 520 150Z" fill="#7E22CE"/>

  <!-- Inner ear details -->
  <path d="M260 140L180 50C180 50 230 120 260 140Z" fill="#4C1D95"/>
  <path d="M540 140L620 50C620 50 570 120 540 140Z" fill="#4C1D95"/>

  <!-- Large almond-shaped eyes like Mr. Kat -->
  <ellipse cx="300" cy="320" rx="90" ry="110" fill="#ECFDF5"/>
  <ellipse cx="500" cy="320" rx="90" ry="110" fill="#ECFDF5"/>

  <!-- Cat pupils - vertical slits like Mr. Kat -->
  <ellipse cx="300" cy="320" rx="25" ry="70" fill="#991B1B"/>
  <ellipse cx="500" cy="320" rx="25" ry="70" fill="#991B1B"/>

  <!-- Eye highlights -->
  <circle cx="280" cy="270" r="20" fill="white"/>
  <circle cx="480" cy="270" r="20" fill="white"/>

  <!-- Small secondary highlights -->
  <circle cx="310" cy="350" r="10" fill="white"/>
  <circle cx="510" cy="350" r="10" fill="white"/>

  <!-- Nose -->
  <path d="M400 400L380 420L420 420Z" fill="#4C1D95"/>

  <!-- Mouth with sharp teeth like Mr. Kat -->
  <path d="M350 450C375 480 425 480 450 450" stroke="#4C1D95" stroke-width="5"/>

  <!-- Sharp teeth - characteristic of Mr. Kat -->
  <path d="M370 450L370 470" stroke="white" stroke-width="3"/>
  <path d="M390 450L390 475" stroke="white" stroke-width="3"/>
  <path d="M410 450L410 475" stroke="white" stroke-width="3"/>
  <path d="M430 450L430 470" stroke="white" stroke-width="3"/>

  <!-- Whiskers -->
  <path d="M350 410L250 390" stroke="#4C1D95" stroke-width="3"/>
  <path d="M350 430L240 430" stroke="#4C1D95" stroke-width="3"/>
  <path d="M350 450L250 470" stroke="#4C1D95" stroke-width="3"/>

  <path d="M450 410L550 390" stroke="#4C1D95" stroke-width="3"/>
  <path d="M450 430L560 430" stroke="#4C1D95" stroke-width="3"/>
  <path d="M450 450L550 470" stroke="#4C1D95" stroke-width="3"/>

  <!-- Eyebrows - gives that mischievous look like Mr. Kat -->
  <path d="M230 230L320 260" stroke="#4C1D95" stroke-width="8"/>
  <path d="M480 260L570 230" stroke="#4C1D95" stroke-width="8"/>
</svg>
