<?xml version="1.0" encoding="UTF-8"?>
<svg width="800" height="600" viewBox="0 0 800 600" fill="none" xmlns="http://www.w3.org/2000/svg">
  <defs>
    <linearGradient id="paint0_linear" x1="400" y1="0" x2="400" y2="600" gradientUnits="userSpaceOnUse">
      <stop stop-color="#8B5CF6" stop-opacity="0.2"/>
      <stop offset="1" stop-color="#EC4899" stop-opacity="0.2"/>
    </linearGradient>
    <filter id="glow" x="-20%" y="-20%" width="140%" height="140%">
      <feGaussianBlur stdDeviation="10" result="blur" />
      <feComposite in="SourceGraphic" in2="blur" operator="over" />
    </filter>
  </defs>
  
  <!-- Background -->
  <rect width="800" height="600" rx="20" fill="url(#paint0_linear)" />
  
  <!-- Cat silhouette -->
  <g filter="url(#glow)">
    <path d="M400 150C300 150 220 230 220 330C220 430 300 510 400 510C500 510 580 430 580 330C580 230 500 150 400 150Z" fill="#0F172A"/>
    
    <!-- Cat ears -->
    <path d="M300 200L220 120C220 120 260 160 300 200Z" fill="#0F172A"/>
    <path d="M500 200L580 120C580 120 540 160 500 200Z" fill="#0F172A"/>
    
    <!-- Cat eyes -->
    <ellipse cx="340" cy="280" rx="30" ry="40" fill="#C4B5FD"/>
    <ellipse cx="460" cy="280" rx="30" ry="40" fill="#C4B5FD"/>
    
    <!-- Cat mouth -->
    <path d="M370 350C385 365 415 365 430 350" stroke="#0F172A" stroke-width="5"/>
  </g>
  
  <!-- Dollar signs -->
  <g filter="url(#glow)">
    <path d="M200 250C200 244.477 204.477 240 210 240H230C235.523 240 240 244.477 240 250V270C240 275.523 235.523 280 230 280H210C204.477 280 200 275.523 200 270V250Z" fill="#8B5CF6"/>
    <path d="M220 230V240M220 280V290" stroke="white" stroke-width="4" stroke-linecap="round"/>
    <path d="M210 250H230M210 270H230" stroke="white" stroke-width="4" stroke-linecap="round"/>
  </g>
  
  <g filter="url(#glow)">
    <path d="M560 350C560 344.477 564.477 340 570 340H590C595.523 340 600 344.477 600 350V370C600 375.523 595.523 380 590 380H570C564.477 380 560 375.523 560 370V350Z" fill="#EC4899"/>
    <path d="M580 330V340M580 380V390" stroke="white" stroke-width="4" stroke-linecap="round"/>
    <path d="M570 350H590M570 370H590" stroke="white" stroke-width="4" stroke-linecap="round"/>
  </g>
  
  <g filter="url(#glow)">
    <path d="M150 400C150 394.477 154.477 390 160 390H180C185.523 390 190 394.477 190 400V420C190 425.523 185.523 430 180 430H160C154.477 430 150 425.523 150 420V400Z" fill="#6366F1"/>
    <path d="M170 380V390M170 430V440" stroke="white" stroke-width="4" stroke-linecap="round"/>
    <path d="M160 400H180M160 420H180" stroke="white" stroke-width="4" stroke-linecap="round"/>
  </g>
  
  <!-- Text -->
  <text x="400" y="450" font-family="monospace" font-size="24" fill="white" text-anchor="middle" filter="url(#glow)">SELL YOUR PROMPTS</text>
  <text x="400" y="480" font-family="monospace" font-size="18" fill="#C4B5FD" text-anchor="middle" filter="url(#glow)">EARN PASSIVE INCOME</text>
</svg>
